<mxfile host="app.diagrams.net" modified="2022-06-20T04:02:45.842Z" agent="5.0 (Windows NT 10.0; Win64; x64) AppleWebKit/537.36 (KHTML, like Gecko) Chrome/92.0.4495.0 Safari/537.36" etag="8b_U8dSL1r1HO8mprGk4" version="17.4.0" type="github">
  <diagram id="3l0WG-vSHbEkW00O-PsA" name="Page-1">
    <mxGraphModel dx="1038" dy="547" grid="1" gridSize="10" guides="1" tooltips="1" connect="1" arrows="1" fold="1" page="1" pageScale="1" pageWidth="827" pageHeight="1169" math="0" shadow="0">
      <root>
        <mxCell id="0" />
        <mxCell id="1" parent="0" />
        <mxCell id="AyqOe1Okd6OeJDXmoUam-1" value="信息搜集&lt;br&gt;" style="rounded=0;whiteSpace=wrap;html=1;" parent="1" vertex="1">
          <mxGeometry x="100" y="250" width="120" height="60" as="geometry" />
        </mxCell>
        <mxCell id="AyqOe1Okd6OeJDXmoUam-2" value="资产整合" style="whiteSpace=wrap;html=1;shape=partialRectangle;top=0;left=0;bottom=1;right=0;points=[[0,1],[1,1]];fillColor=none;align=center;verticalAlign=bottom;routingCenterY=0.5;snapToPoint=1;recursiveResize=0;autosize=1;treeFolding=1;treeMoving=1;newEdgeStyle={&quot;edgeStyle&quot;:&quot;entityRelationEdgeStyle&quot;,&quot;startArrow&quot;:&quot;none&quot;,&quot;endArrow&quot;:&quot;none&quot;,&quot;segment&quot;:10,&quot;curved&quot;:1};" parent="1" vertex="1">
          <mxGeometry x="350" y="140" width="80" height="20" as="geometry" />
        </mxCell>
        <mxCell id="AyqOe1Okd6OeJDXmoUam-3" value="" style="edgeStyle=entityRelationEdgeStyle;startArrow=none;endArrow=none;segment=10;curved=1;rounded=0;exitX=1;exitY=0.25;exitDx=0;exitDy=0;" parent="1" edge="1">
          <mxGeometry relative="1" as="geometry">
            <mxPoint x="220" y="275" as="sourcePoint" />
            <mxPoint x="350" y="150" as="targetPoint" />
          </mxGeometry>
        </mxCell>
        <mxCell id="AyqOe1Okd6OeJDXmoUam-8" value="推荐工具&lt;br&gt;layer（没有环境问题）&lt;br&gt;host碰撞（burp FUZZ）&lt;br&gt;考虑c段&lt;br&gt;同ip地址&lt;br&gt;证书获取ip" style="ellipse;whiteSpace=wrap;html=1;align=center;dashed=1;" parent="1" vertex="1">
          <mxGeometry x="460" y="130" width="140" height="180" as="geometry" />
        </mxCell>
        <mxCell id="AyqOe1Okd6OeJDXmoUam-9" value="" style="verticalLabelPosition=bottom;verticalAlign=top;html=1;strokeWidth=2;shape=mxgraph.arrows2.arrow;dy=0.6;dx=40;notch=0;" parent="1" vertex="1">
          <mxGeometry x="610" y="185" width="100" height="70" as="geometry" />
        </mxCell>
        <mxCell id="AyqOe1Okd6OeJDXmoUam-10" value="获取大量数据之后&lt;br&gt;使用去重在线&lt;br&gt;继续使用bscan批量获取存活的title" style="rounded=0;whiteSpace=wrap;html=1;" parent="1" vertex="1">
          <mxGeometry x="710" y="185" width="120" height="60" as="geometry" />
        </mxCell>
        <mxCell id="AyqOe1Okd6OeJDXmoUam-11" value="" style="shape=singleArrow;whiteSpace=wrap;html=1;" parent="1" vertex="1">
          <mxGeometry x="840" y="185" width="100" height="60" as="geometry" />
        </mxCell>
        <mxCell id="AyqOe1Okd6OeJDXmoUam-13" value="确定目标&lt;br&gt;继进行探测" style="rounded=1;whiteSpace=wrap;html=1;absoluteArcSize=1;arcSize=14;strokeWidth=2;" parent="1" vertex="1">
          <mxGeometry x="950" y="170" width="100" height="100" as="geometry" />
        </mxCell>
        <mxCell id="AyqOe1Okd6OeJDXmoUam-14" value="可能存在的问题：&lt;br&gt;1.ip无法获取-》fofa扫描直接， dns历史记录解析&amp;nbsp;&lt;br&gt;2.waf识别筛选脆弱资产&lt;br&gt;3.指纹探测 批量tidefinger&lt;br&gt;" style="rounded=1;whiteSpace=wrap;html=1;absoluteArcSize=1;arcSize=14;strokeWidth=2;" parent="1" vertex="1">
          <mxGeometry x="200" y="350" width="600" height="120" as="geometry" />
        </mxCell>
        <mxCell id="AyqOe1Okd6OeJDXmoUam-20" style="edgeStyle=orthogonalEdgeStyle;rounded=0;orthogonalLoop=1;jettySize=auto;html=1;" parent="1" edge="1">
          <mxGeometry relative="1" as="geometry">
            <mxPoint x="540" y="700" as="targetPoint" />
            <mxPoint x="540" y="680" as="sourcePoint" />
          </mxGeometry>
        </mxCell>
        <mxCell id="AyqOe1Okd6OeJDXmoUam-21" value="" style="endArrow=classic;html=1;rounded=0;exitX=0.5;exitY=1;exitDx=0;exitDy=0;" parent="1" source="AyqOe1Okd6OeJDXmoUam-1" target="AyqOe1Okd6OeJDXmoUam-22" edge="1">
          <mxGeometry width="50" height="50" relative="1" as="geometry">
            <mxPoint x="420" y="420" as="sourcePoint" />
            <mxPoint x="160" y="540" as="targetPoint" />
          </mxGeometry>
        </mxCell>
        <mxCell id="AyqOe1Okd6OeJDXmoUam-22" value="敏感信息探测：&lt;br&gt;1.目录爆破&lt;br&gt;2.jsfinder&lt;br&gt;3.搜集私人信息获取社工密码（企查查&lt;br&gt;qq群&lt;br&gt;搜集私人密码&lt;br&gt;社工库）&lt;br&gt;4.Google/github dork&lt;br&gt;5.fofa&lt;br&gt;6.同程序站点获取,历史漏洞tance" style="ellipse;whiteSpace=wrap;html=1;aspect=fixed;" parent="1" vertex="1">
          <mxGeometry x="50" y="475" width="220" height="220" as="geometry" />
        </mxCell>
      </root>
    </mxGraphModel>
  </diagram>
</mxfile>
